<mxfile host="app.diagrams.net" agent="Mozilla/5.0 (Windows NT 10.0; Win64; x64) AppleWebKit/537.36 (KHTML, like Gecko) Chrome/136.0.0.0 Safari/537.36" version="26.3.0">
  <diagram name="Página-1" id="lFOv-DSY9lp-7STVkBTa">
    <mxGraphModel dx="1246" dy="673" grid="1" gridSize="10" guides="1" tooltips="1" connect="1" arrows="1" fold="1" page="1" pageScale="1" pageWidth="827" pageHeight="1169" math="0" shadow="0">
      <root>
        <mxCell id="0" />
        <mxCell id="1" parent="0" />
        <mxCell id="RScz_1s8A_NBl1ObRnKX-5" style="edgeStyle=orthogonalEdgeStyle;rounded=0;orthogonalLoop=1;jettySize=auto;html=1;entryX=0;entryY=0.5;entryDx=0;entryDy=0;" edge="1" parent="1" source="RScz_1s8A_NBl1ObRnKX-1" target="RScz_1s8A_NBl1ObRnKX-4">
          <mxGeometry relative="1" as="geometry" />
        </mxCell>
        <mxCell id="RScz_1s8A_NBl1ObRnKX-9" style="edgeStyle=orthogonalEdgeStyle;rounded=0;orthogonalLoop=1;jettySize=auto;html=1;exitX=0.5;exitY=0.5;exitDx=0;exitDy=0;exitPerimeter=0;" edge="1" parent="1" source="RScz_1s8A_NBl1ObRnKX-1" target="RScz_1s8A_NBl1ObRnKX-6">
          <mxGeometry relative="1" as="geometry" />
        </mxCell>
        <mxCell id="RScz_1s8A_NBl1ObRnKX-1" value="Administrador" style="shape=umlActor;verticalLabelPosition=bottom;verticalAlign=top;html=1;outlineConnect=0;" vertex="1" parent="1">
          <mxGeometry x="81" y="170" width="30" height="60" as="geometry" />
        </mxCell>
        <mxCell id="RScz_1s8A_NBl1ObRnKX-11" style="edgeStyle=orthogonalEdgeStyle;rounded=0;orthogonalLoop=1;jettySize=auto;html=1;exitX=0.5;exitY=0.5;exitDx=0;exitDy=0;exitPerimeter=0;entryX=0;entryY=0.5;entryDx=0;entryDy=0;" edge="1" parent="1" source="RScz_1s8A_NBl1ObRnKX-2" target="RScz_1s8A_NBl1ObRnKX-10">
          <mxGeometry relative="1" as="geometry" />
        </mxCell>
        <mxCell id="RScz_1s8A_NBl1ObRnKX-48" style="edgeStyle=orthogonalEdgeStyle;rounded=0;orthogonalLoop=1;jettySize=auto;html=1;exitX=0.5;exitY=0.5;exitDx=0;exitDy=0;exitPerimeter=0;entryX=0;entryY=0.5;entryDx=0;entryDy=0;" edge="1" parent="1" source="RScz_1s8A_NBl1ObRnKX-2" target="RScz_1s8A_NBl1ObRnKX-47">
          <mxGeometry relative="1" as="geometry" />
        </mxCell>
        <mxCell id="RScz_1s8A_NBl1ObRnKX-2" value="Usuário" style="shape=umlActor;verticalLabelPosition=bottom;verticalAlign=top;html=1;outlineConnect=0;" vertex="1" parent="1">
          <mxGeometry x="80" y="331" width="30" height="60" as="geometry" />
        </mxCell>
        <mxCell id="RScz_1s8A_NBl1ObRnKX-14" style="edgeStyle=orthogonalEdgeStyle;rounded=0;orthogonalLoop=1;jettySize=auto;html=1;exitX=0.5;exitY=0.5;exitDx=0;exitDy=0;exitPerimeter=0;entryX=0;entryY=0.5;entryDx=0;entryDy=0;" edge="1" parent="1" source="RScz_1s8A_NBl1ObRnKX-3" target="RScz_1s8A_NBl1ObRnKX-12">
          <mxGeometry relative="1" as="geometry" />
        </mxCell>
        <mxCell id="RScz_1s8A_NBl1ObRnKX-3" value="Usuário Cadastrado" style="shape=umlActor;verticalLabelPosition=bottom;verticalAlign=top;html=1;outlineConnect=0;" vertex="1" parent="1">
          <mxGeometry x="81" y="480" width="30" height="60" as="geometry" />
        </mxCell>
        <mxCell id="RScz_1s8A_NBl1ObRnKX-4" value="Cadastro de Usuário" style="ellipse;whiteSpace=wrap;html=1;" vertex="1" parent="1">
          <mxGeometry x="230" y="70" width="105" height="70" as="geometry" />
        </mxCell>
        <mxCell id="RScz_1s8A_NBl1ObRnKX-6" value="Cadastro de Livro" style="ellipse;whiteSpace=wrap;html=1;" vertex="1" parent="1">
          <mxGeometry x="230" y="165" width="105" height="70" as="geometry" />
        </mxCell>
        <mxCell id="RScz_1s8A_NBl1ObRnKX-10" value="Buscar Livro" style="ellipse;whiteSpace=wrap;html=1;" vertex="1" parent="1">
          <mxGeometry x="230" y="280" width="105" height="70" as="geometry" />
        </mxCell>
        <mxCell id="RScz_1s8A_NBl1ObRnKX-12" value="Login" style="ellipse;whiteSpace=wrap;html=1;" vertex="1" parent="1">
          <mxGeometry x="230" y="450" width="105" height="70" as="geometry" />
        </mxCell>
        <mxCell id="RScz_1s8A_NBl1ObRnKX-15" style="edgeStyle=orthogonalEdgeStyle;rounded=0;orthogonalLoop=1;jettySize=auto;html=1;exitX=0.5;exitY=0.5;exitDx=0;exitDy=0;exitPerimeter=0;entryX=0.5;entryY=0;entryDx=0;entryDy=0;entryPerimeter=0;" edge="1" parent="1" source="RScz_1s8A_NBl1ObRnKX-2" target="RScz_1s8A_NBl1ObRnKX-3">
          <mxGeometry relative="1" as="geometry" />
        </mxCell>
        <mxCell id="RScz_1s8A_NBl1ObRnKX-18" value="Solicitação de Reserva de Livro" style="ellipse;whiteSpace=wrap;html=1;" vertex="1" parent="1">
          <mxGeometry x="240" y="650" width="105" height="70" as="geometry" />
        </mxCell>
        <mxCell id="RScz_1s8A_NBl1ObRnKX-22" value="" style="endArrow=classic;html=1;rounded=0;exitX=0.449;exitY=-0.007;exitDx=0;exitDy=0;exitPerimeter=0;entryX=0.5;entryY=1;entryDx=0;entryDy=0;" edge="1" parent="1" source="RScz_1s8A_NBl1ObRnKX-18" target="RScz_1s8A_NBl1ObRnKX-12">
          <mxGeometry relative="1" as="geometry">
            <mxPoint x="290" y="500" as="sourcePoint" />
            <mxPoint x="390" y="500" as="targetPoint" />
          </mxGeometry>
        </mxCell>
        <mxCell id="RScz_1s8A_NBl1ObRnKX-23" value="&amp;lt;&amp;lt;include&amp;gt;&amp;gt;" style="edgeLabel;resizable=0;html=1;;align=center;verticalAlign=middle;" connectable="0" vertex="1" parent="RScz_1s8A_NBl1ObRnKX-22">
          <mxGeometry relative="1" as="geometry" />
        </mxCell>
        <mxCell id="RScz_1s8A_NBl1ObRnKX-25" value="Verificar Multas" style="ellipse;whiteSpace=wrap;html=1;" vertex="1" parent="1">
          <mxGeometry x="460" y="350" width="112.5" height="75" as="geometry" />
        </mxCell>
        <mxCell id="RScz_1s8A_NBl1ObRnKX-26" value="" style="endArrow=classic;html=1;rounded=0;entryX=1;entryY=0.5;entryDx=0;entryDy=0;exitX=0;exitY=0.5;exitDx=0;exitDy=0;" edge="1" parent="1" source="RScz_1s8A_NBl1ObRnKX-25" target="RScz_1s8A_NBl1ObRnKX-12">
          <mxGeometry relative="1" as="geometry">
            <mxPoint x="370" y="520" as="sourcePoint" />
            <mxPoint x="390" y="500" as="targetPoint" />
          </mxGeometry>
        </mxCell>
        <mxCell id="RScz_1s8A_NBl1ObRnKX-27" value="&amp;lt;&amp;lt;include&amp;gt;&amp;gt;" style="edgeLabel;resizable=0;html=1;;align=center;verticalAlign=middle;" connectable="0" vertex="1" parent="RScz_1s8A_NBl1ObRnKX-26">
          <mxGeometry relative="1" as="geometry" />
        </mxCell>
        <mxCell id="RScz_1s8A_NBl1ObRnKX-32" value="Verificar Prazos de Devolução" style="ellipse;whiteSpace=wrap;html=1;" vertex="1" parent="1">
          <mxGeometry x="456.25" y="440" width="120" height="80" as="geometry" />
        </mxCell>
        <mxCell id="RScz_1s8A_NBl1ObRnKX-33" value="" style="endArrow=classic;html=1;rounded=0;exitX=0;exitY=0.5;exitDx=0;exitDy=0;entryX=1;entryY=1;entryDx=0;entryDy=0;" edge="1" parent="1" source="RScz_1s8A_NBl1ObRnKX-32" target="RScz_1s8A_NBl1ObRnKX-12">
          <mxGeometry relative="1" as="geometry">
            <mxPoint x="460" y="520" as="sourcePoint" />
            <mxPoint x="560" y="520" as="targetPoint" />
          </mxGeometry>
        </mxCell>
        <mxCell id="RScz_1s8A_NBl1ObRnKX-34" value="&amp;lt;&amp;lt;include&amp;gt;&amp;gt;" style="edgeLabel;resizable=0;html=1;;align=center;verticalAlign=middle;" connectable="0" vertex="1" parent="RScz_1s8A_NBl1ObRnKX-33">
          <mxGeometry relative="1" as="geometry" />
        </mxCell>
        <mxCell id="RScz_1s8A_NBl1ObRnKX-36" value="Logout" style="ellipse;whiteSpace=wrap;html=1;" vertex="1" parent="1">
          <mxGeometry x="456.25" y="540" width="120" height="80" as="geometry" />
        </mxCell>
        <mxCell id="RScz_1s8A_NBl1ObRnKX-37" value="" style="endArrow=classic;html=1;rounded=0;exitX=-0.006;exitY=0.41;exitDx=0;exitDy=0;exitPerimeter=0;" edge="1" parent="1" source="RScz_1s8A_NBl1ObRnKX-36" target="RScz_1s8A_NBl1ObRnKX-12">
          <mxGeometry relative="1" as="geometry">
            <mxPoint x="360" y="540" as="sourcePoint" />
            <mxPoint x="460" y="540" as="targetPoint" />
          </mxGeometry>
        </mxCell>
        <mxCell id="RScz_1s8A_NBl1ObRnKX-38" value="&amp;lt;&amp;lt;include&amp;gt;&amp;gt;" style="edgeLabel;resizable=0;html=1;;align=center;verticalAlign=middle;" connectable="0" vertex="1" parent="RScz_1s8A_NBl1ObRnKX-37">
          <mxGeometry relative="1" as="geometry" />
        </mxCell>
        <mxCell id="RScz_1s8A_NBl1ObRnKX-39" value="Pagar Multas" style="ellipse;whiteSpace=wrap;html=1;" vertex="1" parent="1">
          <mxGeometry x="456.25" y="640" width="120" height="80" as="geometry" />
        </mxCell>
        <mxCell id="RScz_1s8A_NBl1ObRnKX-40" value="" style="endArrow=classic;html=1;rounded=0;exitX=0;exitY=0.5;exitDx=0;exitDy=0;entryX=0.5;entryY=1;entryDx=0;entryDy=0;" edge="1" parent="1" source="RScz_1s8A_NBl1ObRnKX-39" target="RScz_1s8A_NBl1ObRnKX-12">
          <mxGeometry relative="1" as="geometry">
            <mxPoint x="330" y="630" as="sourcePoint" />
            <mxPoint x="430" y="630" as="targetPoint" />
          </mxGeometry>
        </mxCell>
        <mxCell id="RScz_1s8A_NBl1ObRnKX-41" value="&amp;lt;&amp;lt;include&amp;gt;&amp;gt;" style="edgeLabel;resizable=0;html=1;;align=center;verticalAlign=middle;" connectable="0" vertex="1" parent="RScz_1s8A_NBl1ObRnKX-40">
          <mxGeometry relative="1" as="geometry" />
        </mxCell>
        <mxCell id="RScz_1s8A_NBl1ObRnKX-44" value="Cancelar Reserva de Livro" style="ellipse;whiteSpace=wrap;html=1;" vertex="1" parent="1">
          <mxGeometry x="232.5" y="840" width="120" height="80" as="geometry" />
        </mxCell>
        <mxCell id="RScz_1s8A_NBl1ObRnKX-45" value="" style="endArrow=classic;html=1;rounded=0;entryX=0.5;entryY=1;entryDx=0;entryDy=0;exitX=0.5;exitY=0;exitDx=0;exitDy=0;" edge="1" parent="1" source="RScz_1s8A_NBl1ObRnKX-44" target="RScz_1s8A_NBl1ObRnKX-18">
          <mxGeometry relative="1" as="geometry">
            <mxPoint x="330" y="880" as="sourcePoint" />
            <mxPoint x="430" y="880" as="targetPoint" />
          </mxGeometry>
        </mxCell>
        <mxCell id="RScz_1s8A_NBl1ObRnKX-46" value="&amp;lt;&amp;lt;include&amp;gt;&amp;gt;" style="edgeLabel;resizable=0;html=1;;align=center;verticalAlign=middle;" connectable="0" vertex="1" parent="RScz_1s8A_NBl1ObRnKX-45">
          <mxGeometry relative="1" as="geometry" />
        </mxCell>
        <mxCell id="RScz_1s8A_NBl1ObRnKX-47" value="Buscar Livro Digital" style="ellipse;whiteSpace=wrap;html=1;" vertex="1" parent="1">
          <mxGeometry x="222.5" y="360" width="105" height="70" as="geometry" />
        </mxCell>
      </root>
    </mxGraphModel>
  </diagram>
</mxfile>
